<?xml version="1.0" standalone="no"?>
<!DOCTYPE svg PUBLIC "-//W3C//DTD SVG 20010904//EN"
 "http://www.w3.org/TR/2001/REC-SVG-20010904/DTD/svg10.dtd">
<svg version="1.0" xmlns="http://www.w3.org/2000/svg"
 width="200.000000pt" height="174.000000pt" viewBox="0 0 200.000000 174.000000"
 preserveAspectRatio="xMidYMid meet">
<metadata>
Created by potrace 1.13, written by Peter Selinger 2001-2015
</metadata>
<g transform="translate(0.000000,174.000000) scale(0.100000,-0.100000)"
fill="#000000" stroke="none">
<path d="M1051 1723 c-1 -13 8 -32 18 -42 11 -11 16 -23 13 -27 -4 -4 -1 -3 7
1 10 6 13 4 9 -7 -4 -8 0 -15 7 -15 11 0 12 5 3 21 -14 26 -18 57 -6 50 5 -3
7 -11 5 -17 -2 -7 4 -24 14 -38 10 -14 19 -32 21 -39 2 -8 14 -24 28 -36 13
-12 25 -32 25 -45 0 -13 5 -23 12 -22 7 2 10 -4 6 -13 -4 -11 -8 -12 -13 -4
-5 8 -9 6 -14 -6 -7 -19 21 -57 36 -48 11 7 1 19 -15 19 -5 0 -12 6 -15 13 -3
11 0 12 16 3 10 -6 23 -7 27 -3 5 4 5 2 1 -5 -3 -6 -2 -14 4 -18 5 -3 10 -15
10 -26 0 -10 6 -18 13 -16 6 1 12 -5 13 -13 0 -8 4 -23 8 -32 5 -10 6 -23 3
-30 -3 -7 -6 -3 -6 9 -1 12 -5 24 -11 28 -5 3 -7 13 -4 23 5 14 4 14 -4 3 -8
-12 -13 -7 -20 20 -6 21 -11 26 -11 14 -1 -11 6 -30 14 -41 8 -12 11 -25 7
-29 -4 -5 -2 -5 4 -2 7 4 14 -4 17 -21 3 -15 12 -35 19 -45 12 -16 13 -15 15
9 1 19 -1 23 -8 13 -5 -8 -9 -9 -9 -4 0 6 4 16 9 23 11 19 20 -4 17 -46 -1
-17 3 -30 8 -29 6 1 12 -10 14 -26 2 -15 12 -32 23 -38 22 -12 59 -66 59 -88
0 -14 -14 -7 -15 7 -2 23 -18 49 -37 61 -22 13 -23 13 -5 -6 9 -11 14 -23 10
-28 -5 -4 -2 -5 5 -1 6 4 13 2 13 -3 2 -12 5 -26 9 -38 1 -5 2 -12 1 -17 -1
-5 5 -4 13 4 19 15 21 0 4 -20 -10 -11 -9 -11 6 0 18 13 19 13 13 -2 -3 -9 1
-22 9 -29 10 -8 11 -15 4 -24 -8 -10 -8 -15 1 -21 7 -4 9 -3 5 4 -3 6 -2 13 4
17 9 6 14 -8 11 -28 -1 -5 3 -6 9 -2 5 3 10 -2 11 -12 0 -10 3 -13 6 -6 2 7
-5 27 -17 45 -19 29 -20 31 -1 10 11 -13 22 -23 25 -22 4 0 8 0 10 0 3 0 0
-14 -5 -32 -5 -19 -5 -36 0 -41 5 -5 7 -15 5 -22 -3 -6 2 -18 11 -25 10 -8 15
-9 15 -1 0 6 -5 11 -11 11 -6 0 -9 7 -6 15 4 8 2 17 -3 20 -6 4 -10 11 -10 18
0 17 21 -7 25 -29 1 -11 8 -18 14 -17 7 2 7 -5 -1 -22 -6 -14 -14 -22 -17 -18
-3 4 -15 15 -26 23 -19 14 -20 14 -2 -6 18 -22 23 -39 8 -29 -9 5 -9 -2 -1
-40 6 -26 -3 -38 -11 -15 -8 23 -8 22 -5 -8 1 -18 -1 -35 -6 -38 -5 -3 -5 -10
-2 -16 4 -7 2 -8 -5 -4 -6 4 -9 12 -6 17 4 5 -1 9 -10 9 -12 0 -13 -4 -6 -18
6 -10 6 -24 1 -32 -5 -8 -6 -18 -3 -24 4 -5 1 -6 -7 -1 -10 6 -12 4 -7 -8 4
-10 2 -16 -6 -14 -7 1 -11 -3 -10 -10 4 -18 -24 -37 -33 -22 -5 8 -3 9 6 4 9
-6 11 -4 5 5 -6 9 -4 11 6 5 8 -5 11 -5 7 0 -4 4 1 20 12 35 11 16 20 36 19
47 -1 13 -3 11 -8 -7 -4 -14 -13 -24 -19 -23 -7 2 -9 -4 -5 -14 4 -11 3 -14
-6 -9 -7 5 -10 2 -9 -6 2 -7 -2 -12 -9 -11 -13 3 -10 -24 7 -59 11 -22 10 -22
-9 2 -18 21 -20 21 -15 5 4 -11 12 -27 18 -35 10 -13 9 -13 -7 -1 -17 13 -18
12 -13 -13 4 -23 3 -26 -10 -16 -7 7 -14 9 -14 4 0 -5 -5 -2 -10 6 -6 9 -10
10 -10 3 0 -7 8 -17 18 -22 10 -6 12 -11 4 -11 -7 0 -10 -5 -6 -12 5 -7 3 -8
-6 -3 -10 6 -12 1 -8 -18 3 -15 1 -24 -3 -21 -13 8 -11 38 4 53 8 9 8 12 0 7
-6 -3 -14 0 -16 6 -3 7 -4 -11 -3 -41 3 -51 2 -52 -11 -27 -7 14 -15 26 -16
26 -1 0 -3 -21 -4 -47 -3 -75 -5 -85 -17 -73 -14 14 -31 13 -19 -2 6 -7 10
-22 10 -32 0 -18 -1 -18 -18 2 -14 18 -18 19 -23 6 -3 -8 -2 -13 3 -10 10 6
25 -24 16 -32 -3 -3 -5 0 -5 6 0 7 -8 12 -17 12 -15 0 -16 -2 -3 -10 13 -8 13
-10 -2 -10 -9 0 -19 6 -21 13 -4 9 -6 9 -6 -1 -1 -7 9 -17 22 -23 21 -9 20 -9
-5 -6 -34 5 -36 0 -5 -13 22 -9 22 -9 -3 -10 -14 0 -20 -4 -14 -8 6 -4 7 -17
3 -32 -6 -20 -7 -21 -8 -5 -1 11 -5 26 -10 33 -5 9 -7 -2 -5 -27 1 -23 -1 -39
-6 -36 -5 3 -6 13 -3 23 3 9 2 13 -2 9 -5 -4 -9 -24 -8 -45 0 -20 -1 -27 -4
-14 -8 38 -19 24 -16 -20 1 -24 -1 -33 -3 -20 -3 12 -9 22 -14 22 -5 0 -5 -13
0 -30 6 -20 5 -28 -1 -24 -6 3 -10 0 -8 -7 1 -8 1 -21 0 -29 -1 -13 -3 -13
-10 -1 -6 9 -6 22 0 33 5 10 6 18 2 18 -16 0 -33 -53 -22 -66 15 -19 519 -20
519 -2 0 9 3 9 11 -2 8 -11 9 -8 4 14 -5 25 -4 28 9 17 8 -7 12 -20 9 -29 -4
-14 -3 -15 6 -2 7 10 6 19 -5 31 -8 8 -11 19 -7 24 5 4 2 5 -5 1 -8 -5 -13 -3
-11 5 1 8 1 21 0 29 -1 13 -3 13 -10 1 -6 -9 -6 -23 0 -35 8 -16 5 -15 -10 4
-11 14 -21 31 -21 38 0 7 -5 10 -12 6 -6 -4 -8 -3 -5 3 4 6 1 13 -7 16 -10 4
-14 21 -13 54 1 33 -2 47 -11 46 -11 -3 -17 10 -13 31 1 4 -3 14 -9 20 -5 7
-8 16 -5 19 3 4 2 5 -2 2 -3 -3 -12 0 -20 6 -7 6 -13 7 -13 3 0 -5 9 -15 21
-22 11 -7 18 -18 16 -25 -6 -16 12 -49 23 -42 10 6 7 -21 -4 -32 -4 -4 -6 -1
-4 7 2 8 -3 14 -10 12 -8 -1 -11 2 -8 7 4 5 -4 20 -16 33 -13 13 -19 20 -14
15 23 -17 28 -5 7 17 -12 13 -21 30 -19 37 2 8 -3 13 -12 11 -8 -2 -12 0 -7 4
4 4 -1 17 -10 28 -17 20 -17 20 1 6 18 -14 18 -13 12 10 -6 19 -5 22 3 10 9
-12 11 -6 9 25 -1 22 -6 47 -12 55 -10 13 -9 13 6 2 13 -11 16 -26 14 -63 -1
-29 1 -44 5 -37 5 7 9 31 9 53 0 22 4 35 8 29 5 -8 13 -4 24 11 16 22 16 25 2
39 -8 9 -12 16 -7 16 5 0 14 -5 20 -11 9 -9 10 -7 6 9 -3 12 -2 30 2 39 5 10
7 25 6 33 -2 13 -1 13 8 0 7 -9 7 -18 1 -24 -6 -6 -10 -19 -9 -31 1 -17 2 -16
8 5 4 14 13 24 19 22 9 -1 9 3 0 18 -11 17 -10 25 3 49 13 22 14 32 5 42 -6 8
0 5 13 -6 l24 -20 -6 24 c-4 17 -3 21 5 13 13 -13 2 -46 -12 -37 -6 4 -7 -1
-3 -11 6 -15 7 -15 15 0 7 12 13 14 22 7 9 -7 12 -3 14 16 3 35 12 43 12 10 0
-14 4 -28 9 -31 5 -4 7 3 4 14 -3 12 0 20 6 20 7 0 9 -4 6 -10 -3 -5 -1 -10 5
-10 6 0 8 -5 4 -12 -4 -6 -3 -8 3 -5 11 7 49 -60 45 -77 -2 -5 6 -19 18 -31
11 -12 17 -25 13 -30 -5 -4 -2 -4 6 0 11 6 13 4 8 -9 -4 -10 -3 -15 3 -11 10
6 19 -9 24 -39 1 -8 5 -18 9 -22 12 -12 -4 48 -18 70 -8 13 -12 26 -8 31 5 4
2 5 -5 1 -8 -5 -11 -3 -10 5 2 7 -4 13 -12 14 -9 0 -14 9 -13 23 2 12 -1 22
-6 22 -5 0 -11 9 -14 20 -8 32 -9 34 -22 45 -15 13 -29 48 -15 40 6 -3 10 -12
10 -18 0 -7 9 -18 21 -25 12 -7 18 -16 15 -19 -9 -9 14 -44 25 -37 8 4 7 0 0
-14 -9 -16 -7 -21 7 -28 9 -4 21 -6 25 -5 5 1 6 -3 3 -8 -4 -5 -2 -12 3 -16 6
-3 7 -13 4 -22 -4 -9 -2 -14 3 -10 10 6 15 -14 18 -65 0 -14 3 -25 4 -23 2 2
12 -5 23 -16 11 -11 24 -17 29 -14 6 4 7 -1 3 -11 -4 -12 -3 -15 6 -10 6 4 11
4 10 -1 -4 -18 43 -103 53 -97 6 4 8 3 5 -3 -12 -19 4 -67 33 -103 l29 -35 0
755 c1 706 -4 840 -25 755 -4 -17 -2 -36 6 -49 12 -18 11 -19 -2 -9 -19 16
-32 5 -16 -14 9 -11 7 -12 -7 -7 -14 6 -16 4 -10 -6 6 -9 4 -11 -5 -5 -10 6
-12 4 -6 -11 5 -15 4 -16 -5 -7 -9 9 -6 19 11 42 12 17 19 37 17 44 -3 7 -6 4
-6 -6 -1 -12 -6 -16 -13 -11 -7 4 -10 4 -6 -1 11 -11 -11 -47 -24 -39 -6 4 -9
3 -6 -2 8 -15 21 -48 24 -62 1 -9 -2 -10 -9 -4 -7 5 -21 12 -32 15 -17 6 -18
5 -5 -5 9 -7 15 -19 14 -25 -1 -7 -2 -19 -3 -25 -1 -8 -4 -9 -9 -3 -4 6 -16
17 -27 25 -20 14 -20 14 -2 -6 10 -12 20 -31 22 -44 3 -18 2 -20 -10 -10 -8 7
-13 16 -10 20 3 5 1 12 -5 15 -6 4 -9 1 -8 -7 2 -7 -3 -12 -10 -10 -8 1 -11
-2 -7 -8 3 -5 1 -19 -5 -30 -8 -14 -8 -25 -2 -33 7 -8 6 -20 -3 -37 -8 -14
-14 -21 -15 -17 0 5 5 18 11 29 7 12 7 18 1 14 -6 -3 -13 0 -16 6 -3 7 -3 2 1
-12 5 -21 4 -23 -9 -13 -12 10 -15 10 -15 -2 0 -8 4 -12 9 -9 4 3 8 0 8 -5 0
-10 -13 -15 -32 -12 -3 0 -5 -20 -4 -44 l3 -45 -19 27 c-10 16 -18 23 -18 16
0 -6 5 -15 10 -18 6 -4 9 -19 8 -35 -1 -16 -5 -27 -9 -24 -4 2 -5 13 -2 23 3
10 0 22 -5 25 -6 4 -8 -3 -5 -16 4 -22 4 -23 -11 -4 -27 34 -17 5 11 -33 19
-25 21 -31 8 -21 -11 8 -23 19 -26 23 -3 5 -9 1 -12 -8 -4 -9 -3 -14 2 -11 5
3 14 0 20 -7 15 -19 -21 -16 -46 3 -17 14 -17 14 -1 -5 18 -21 22 -73 4 -55
-6 6 -14 3 -23 -8 -12 -16 -12 -15 -6 3 6 17 5 18 -9 7 -11 -9 -18 -10 -23 -2
-3 6 -11 8 -16 5 -11 -8 -28 33 -23 58 1 10 0 15 -5 13 -10 -7 -28 26 -25 47
1 10 -2 14 -9 10 -7 -4 -8 0 -3 13 4 10 4 15 0 11 -4 -4 -16 5 -26 20 -11 16
-18 21 -16 11 2 -9 -1 -18 -7 -20 -5 -2 -9 14 -8 34 0 21 -4 35 -9 32 -5 -3
-6 -15 -3 -27 4 -15 0 -12 -11 8 -10 17 -18 39 -19 50 -2 11 -7 19 -12 18 -5
-1 -10 5 -10 13 0 17 13 19 20 2 3 -7 6 -3 6 10 1 13 -3 21 -7 18 -5 -3 -9 1
-9 9 0 8 5 11 10 8 6 -4 8 0 4 10 -4 10 -2 17 4 17 6 0 9 -9 6 -20 -3 -11 -1
-23 4 -26 5 -3 7 -10 4 -15 -12 -18 -14 -52 -5 -68 7 -12 9 -6 9 22 1 20 1 53
1 74 1 20 -5 40 -12 44 -7 5 -8 9 -2 9 5 0 15 -5 21 -11 9 -9 10 -7 6 9 -3 12
-9 19 -14 16 -5 -3 -6 2 -2 12 5 14 8 13 19 -7 12 -23 12 -23 10 7 -2 17 -7
37 -11 45 -8 12 -6 12 8 0 20 -16 23 -2 5 19 -7 8 -4 7 6 -2 16 -14 17 -19 6
-33 -10 -12 -11 -18 -1 -28 10 -9 11 -8 5 7 -4 12 -4 17 2 13 14 -8 15 35 1
52 -10 12 -9 13 11 2 12 -7 20 -17 16 -23 -4 -6 -3 -8 4 -4 6 3 9 15 7 26 -2
11 2 20 8 20 7 0 4 5 -5 11 -10 5 -18 15 -18 22 0 7 4 6 10 -3 8 -12 10 -11
10 7 0 12 4 24 10 28 5 3 7 13 4 23 -5 14 -4 14 4 2 6 -8 9 -17 6 -21 -2 -4 3
-12 11 -19 12 -10 13 -8 10 9 -2 12 -7 26 -10 31 -9 14 8 13 23 -2 8 -8 10 -5
6 16 -3 21 -1 26 8 20 9 -5 8 -1 -2 12 -22 29 -24 30 -18 13 4 -9 2 -22 -3
-30 -8 -12 -10 -12 -8 1 4 41 8 40 -256 40 -174 0 -255 -3 -255 -11 0 -6 5
-19 10 -30 7 -12 7 -19 1 -19 -6 0 -15 15 -20 33 -7 25 -9 27 -10 10z m936
-135 c-3 -7 -5 -2 -5 12 0 14 2 19 5 13 2 -7 2 -19 0 -25z m-468 -4 c4 3 8 -1
8 -9 0 -11 -4 -12 -14 -4 -7 6 -13 17 -12 23 0 7 2 6 6 -2 2 -6 8 -10 12 -8z
m341 -219 c0 -5 -5 -3 -10 5 -9 13 -10 13 -11 0 -1 -8 -1 -18 0 -22 0 -5 -3
-8 -9 -8 -13 0 -13 3 2 35 8 18 14 22 20 13 4 -7 8 -17 8 -23z m-514 -91 c1
-9 0 -13 -4 -10 -3 4 -7 14 -8 22 -1 9 0 13 4 10 3 -4 7 -14 8 -22z m444 -12
c-8 -4 -16 -15 -18 -26 -2 -12 1 -16 9 -10 8 4 10 3 5 -5 -10 -15 -26 -4 -26
18 0 22 9 31 29 30 14 0 14 -1 1 -7z m-417 -53 c7 -1 17 0 22 1 6 1 7 -2 3 -6
-4 -4 -2 -14 4 -23 10 -12 8 -12 -8 2 -11 9 -26 17 -32 17 -7 0 -11 12 -11 28
2 23 2 24 6 5 2 -13 10 -24 16 -24z m147 -24 c1 -5 11 -22 22 -37 11 -16 14
-28 8 -28 -6 0 -8 -5 -3 -12 10 -17 14 -42 5 -33 -4 4 -7 10 -7 13 0 4 -9 19
-19 34 -10 15 -15 31 -12 36 3 6 -1 15 -9 22 -7 6 -11 19 -8 27 4 11 2 14 -5
9 -8 -5 -10 -1 -5 10 5 14 8 13 19 -7 6 -13 13 -28 14 -34z m-58 -131 c2 -5
-1 -9 -7 -9 -5 0 -10 7 -11 15 -1 8 -5 24 -8 35 -4 11 -1 9 8 -6 8 -14 16 -30
18 -35z m72 -100 c3 -8 2 -12 -4 -9 -6 3 -10 10 -10 16 0 14 7 11 14 -7z m-2
-131 c-6 -2 -9 -10 -6 -15 4 -7 2 -8 -5 -4 -13 9 -5 26 12 25 9 0 8 -2 -1 -6z
m-53 -349 c-14 -17 -14 -17 -28 0 -10 12 -8 13 11 9 l23 -6 -25 22 -25 22 28
-17 c21 -13 25 -19 16 -30z m362 -69 c5 3 6 -1 2 -10 -5 -13 -7 -14 -14 -3 -5
7 -8 20 -8 28 1 11 3 10 6 -3 2 -9 9 -15 14 -12z m122 -211 c-3 -8 2 -21 12
-28 10 -7 15 -19 12 -27 -4 -11 -6 -10 -6 2 -1 9 -8 20 -17 23 -8 3 -14 14
-12 23 1 10 -2 25 -7 33 -7 13 -6 13 7 2 9 -8 14 -20 11 -28z m-392 -151 c13
-16 12 -17 -3 -4 -10 7 -18 15 -18 17 0 8 8 3 21 -13z"/>
<path d="M1520 1155 c0 -5 5 -17 10 -25 5 -8 10 -10 10 -5 0 6 -5 17 -10 25
-5 8 -10 11 -10 5z"/>
<path d="M3 876 c2 -674 4 -770 17 -773 9 -3 11 -1 5 4 -12 9 -15 53 -4 53 4
0 10 -8 12 -17 2 -10 3 -6 2 9 -1 16 2 28 7 28 5 0 6 5 2 12 -4 7 -3 8 4 4 6
-4 9 -14 6 -24 -5 -15 -4 -15 6 1 6 9 15 15 20 12 4 -3 6 5 2 17 -5 21 -4 22
14 8 17 -13 18 -13 8 0 -14 19 -24 71 -13 64 5 -3 9 -14 9 -24 0 -10 4 -21 9
-24 5 -4 5 9 1 30 -11 50 -2 75 16 43 18 -33 17 -11 -1 25 -14 25 -14 27 0 16
12 -10 15 -10 15 4 0 9 5 16 11 16 8 0 7 6 -2 18 -13 15 -12 16 3 4 16 -13 16
-16 1 -38 -12 -20 -13 -28 -4 -37 10 -9 11 -8 5 7 -5 13 -4 17 4 12 8 -5 10
-1 5 10 -5 13 -3 15 7 9 9 -5 11 -4 6 3 -4 7 -1 12 6 12 8 0 9 3 3 8 -5 4 -17
16 -25 27 l-15 20 24 -20 c14 -11 21 -14 17 -7 -4 7 -9 27 -11 45 l-4 32 15
-25 15 -25 -4 27 c-2 15 0 25 4 22 5 -3 9 -15 10 -27 1 -20 2 -20 8 3 5 17 2
29 -8 37 -9 6 -13 15 -8 19 4 4 7 2 7 -4 0 -7 8 -12 18 -12 14 0 15 2 2 10
-13 8 -13 10 2 10 9 0 18 -5 20 -12 3 -7 7 -5 11 6 4 9 3 15 -1 12 -4 -2 -14
-1 -22 5 -12 7 -9 9 10 10 23 0 23 1 5 9 -17 7 -16 9 10 10 26 1 27 3 10 9
-11 5 -24 6 -29 3 -5 -3 -6 0 -3 5 4 6 19 9 34 6 25 -3 26 -2 7 6 -12 5 -25
16 -29 23 -6 10 -5 11 6 0 7 -6 20 -12 28 -12 11 0 10 4 -5 15 -19 15 -19 15
1 8 11 -3 23 -11 27 -17 5 -8 8 -7 8 1 0 7 -9 17 -20 23 -11 6 -20 16 -20 23
0 7 3 8 8 2 4 -5 18 -16 32 -23 l25 -13 -25 22 c-24 22 -25 22 -3 16 13 -3 26
0 30 5 3 7 1 8 -5 4 -7 -4 -12 -2 -12 4 0 6 -4 8 -10 5 -6 -4 -7 1 -3 11 4 11
8 13 11 6 2 -7 10 -12 19 -12 12 0 12 2 -2 16 -9 9 -14 19 -11 21 3 3 12 -2
21 -11 24 -23 28 -20 9 9 -9 14 -13 25 -9 25 4 0 1 8 -6 18 -13 16 -13 16 5 2
18 -14 19 -13 14 8 -4 13 -2 20 4 16 6 -4 8 2 4 17 -6 21 -5 21 4 6 9 -13 8
-25 -4 -47 -8 -18 -11 -32 -5 -36 5 -3 9 -2 8 3 -3 17 14 53 22 47 5 -3 4 7
-1 23 l-10 28 21 -25 c16 -20 18 -21 10 -4 -11 23 -11 65 1 58 4 -3 5 -11 2
-18 -3 -7 1 -18 9 -24 11 -9 14 -8 14 3 0 8 -4 12 -9 9 -4 -3 -8 -1 -8 5 0 5
6 12 13 14 10 4 10 6 0 6 -7 1 -13 8 -13 17 0 9 -5 12 -12 8 -7 -4 -10 -4 -6
1 4 4 2 15 -5 24 -11 14 -10 14 6 2 18 -15 24 -2 6 16 -6 6 -12 17 -13 24 -6
29 -21 58 -31 58 -5 1 -10 7 -10 14 0 6 -7 19 -15 27 -9 8 -11 12 -6 8 16 -13
31 -9 18 4 -17 17 -15 33 3 18 10 -8 13 -23 10 -44 -4 -20 -2 -26 4 -17 6 10
11 6 18 -15 9 -27 10 -27 15 -6 4 14 2 20 -5 15 -6 -4 -8 0 -4 10 4 10 2 16
-6 14 -7 -1 -11 4 -9 12 1 7 -2 19 -8 25 -5 7 -6 16 -2 20 4 4 0 6 -8 4 -9 -2
-14 3 -12 14 1 9 -1 19 -6 22 -5 3 -8 -6 -6 -19 1 -14 -2 -28 -7 -31 -5 -3 -8
0 -7 8 2 7 -3 12 -10 10 -6 -1 -11 4 -10 10 2 7 -2 12 -8 11 -6 -1 -11 5 -11
13 0 19 13 18 21 -2 4 -9 9 -14 13 -10 9 9 -28 47 -40 39 -5 -3 -7 -2 -4 4 4
6 0 19 -8 29 -17 22 -20 48 -5 39 6 -4 8 -9 6 -13 -2 -4 2 -16 10 -27 14 -19
15 -19 11 2 -1 11 -8 28 -15 35 -6 8 -8 19 -4 23 4 5 2 6 -3 2 -14 -7 -33 23
-29 46 1 11 0 16 -3 14 -10 -11 -54 47 -50 65 3 9 2 17 -2 16 -21 -2 -33 5
-41 25 -6 12 -16 30 -22 40 -11 14 -10 19 2 27 8 5 10 10 5 10 -6 0 -16 -5
-23 -12 -9 -9 -10 -4 -2 20 6 23 6 30 -2 26 -8 -5 -9 -1 -5 10 5 11 3 15 -5
10 -7 -5 -9 -2 -6 7 3 9 -3 26 -14 40 l-19 24 12 -25 c7 -14 14 -32 15 -40 1
-8 5 -26 8 -40 5 -22 5 -22 -5 3 -6 15 -14 25 -19 22 -4 -3 -6 4 -3 15 5 18
-5 25 -29 21 -5 0 -7 2 -7 7 4 22 -2 42 -11 37 -6 -4 -7 1 -3 12 6 14 9 12 20
-15 7 -18 15 -32 18 -32 3 0 -1 14 -7 31 -7 17 -17 30 -22 29 -5 -1 -13 4 -17
12 -5 7 -8 -333 -6 -756z m122 534 l20 -25 -22 19 c-13 11 -23 24 -23 29 0 6
1 8 3 6 1 -2 11 -15 22 -29z m34 -64 c-3 -3 -11 5 -18 17 -13 21 -12 21 5 5
10 -10 16 -20 13 -22z m57 -55 c14 -14 21 -27 15 -29 -6 -2 -11 -8 -11 -13 0
-6 4 -8 9 -4 6 3 15 -3 20 -14 8 -14 7 -22 -4 -31 -12 -10 -13 -7 -9 14 3 18
0 25 -8 24 -8 -2 -12 6 -11 20 2 14 -1 21 -7 17 -6 -4 -9 -1 -8 7 2 7 -2 12
-8 11 -6 -1 -11 3 -12 10 0 7 -3 23 -7 37 l-6 25 11 -24 c6 -13 22 -36 36 -50z
m-145 -1082 c-5 -13 -10 -19 -10 -12 -1 15 10 45 15 40 3 -2 0 -15 -5 -28z"/>
<path d="M1552 1620 c0 -14 2 -19 5 -12 2 6 2 18 0 25 -3 6 -5 1 -5 -13z"/>
<path d="M1120 1621 c0 -7 -5 -9 -12 -5 -7 4 -6 -1 3 -12 9 -10 15 -24 12 -30
-2 -6 7 -19 19 -30 l23 -19 -19 23 c-23 27 -16 40 7 14 9 -10 18 -30 19 -45 3
-32 11 -26 13 9 0 17 -8 33 -24 45 -14 11 -26 27 -27 35 -3 20 -14 31 -14 15z"/>
<path d="M1890 1496 c0 -2 7 -7 16 -10 8 -3 12 -2 9 4 -6 10 -25 14 -25 6z"/>
<path d="M1860 1466 c0 -2 8 -10 18 -17 15 -13 16 -12 3 4 -13 16 -21 21 -21
13z"/>
<path d="M150 1433 c0 -7 4 -14 10 -18 5 -3 7 -12 3 -20 -3 -8 -3 -15 0 -15
13 0 13 28 1 45 -8 10 -14 14 -14 8z"/>
<path d="M583 1424 c24 -29 21 -41 -5 -18 -22 18 -22 18 -8 0 8 -10 15 -24 16
-30 0 -6 2 -17 2 -24 3 -18 45 -32 55 -18 5 7 7 3 5 -9 -2 -11 2 -19 7 -18 6
1 10 -19 9 -45 0 -29 6 -59 17 -76 18 -29 18 -29 15 -5 -1 14 -6 31 -11 38 -4
8 -9 28 -11 45 -3 21 -1 27 5 17 5 -8 7 -21 3 -29 -3 -10 -1 -13 6 -8 8 5 10
1 5 -10 -4 -11 -3 -15 5 -10 7 4 10 -1 7 -14 -3 -18 5 -25 27 -21 4 0 5 -6 1
-14 -3 -9 11 -42 31 -74 20 -33 36 -70 36 -84 0 -13 6 -30 14 -37 8 -6 12 -19
10 -28 -5 -14 -3 -14 6 1 10 15 9 21 -5 31 -10 7 -15 20 -12 32 4 17 5 16 6
-3 1 -21 11 -28 34 -24 5 1 5 -4 2 -10 -11 -18 -15 -78 -5 -84 5 -3 7 -15 5
-26 -2 -12 2 -36 10 -55 10 -26 11 -35 2 -40 -7 -4 -9 -4 -5 1 7 7 -17 65 -28
65 -2 0 0 -9 6 -19 12 -23 7 -67 -8 -64 -10 2 -25 -47 -25 -79 0 -10 -3 -15
-8 -13 -4 3 -6 13 -4 23 11 48 23 77 32 75 14 -3 13 34 -1 46 -9 8 -13 7 -13
-4 0 -8 5 -11 10 -8 5 3 7 0 5 -8 -3 -8 -11 -13 -17 -11 -6 1 -10 -1 -10 -5 1
-5 1 -19 0 -32 -1 -21 -3 -22 -18 -10 -15 11 -16 11 -5 -1 16 -19 16 -35 -1
-21 -10 8 -14 7 -14 -4 0 -8 4 -12 9 -9 4 3 8 -5 7 -18 0 -13 -3 -17 -6 -10
-8 20 -22 14 -16 -8 3 -11 9 -17 14 -14 5 3 6 -2 2 -12 -5 -14 -8 -14 -18 5
l-11 22 -12 -26 c-7 -15 -8 -24 -2 -20 5 3 10 1 10 -5 0 -6 4 -9 8 -6 5 3 9
-2 9 -10 0 -10 -4 -11 -11 -4 -5 5 -14 10 -20 10 -6 0 -5 -5 2 -12 7 -7 12
-16 12 -22 0 -5 -8 1 -19 13 l-18 21 0 -26 c0 -18 2 -22 8 -13 6 10 9 10 9 2
0 -6 -5 -15 -11 -18 -6 -4 -8 -14 -5 -22 3 -8 1 -11 -4 -8 -6 4 -9 14 -8 22 2
9 -4 17 -13 18 -9 2 -16 -3 -16 -11 0 -7 4 -11 8 -9 8 6 22 -45 14 -53 -3 -3
-5 2 -5 11 0 9 -4 18 -8 21 -5 3 -7 -7 -5 -22 3 -15 -2 -35 -10 -46 -12 -17
-14 -17 -30 -1 -22 22 -21 13 3 -29 13 -25 16 -37 8 -42 -6 -4 -8 -3 -5 3 3 5
-4 22 -17 38 -16 20 -23 23 -23 12 0 -9 5 -13 10 -10 5 3 7 0 5 -8 -3 -8 -10
-13 -15 -12 -5 1 -9 -9 -9 -22 0 -13 4 -21 10 -18 5 4 7 -1 3 -10 -3 -9 -1
-19 5 -23 6 -4 8 -3 4 4 -3 6 -2 13 4 17 9 6 14 -8 11 -28 -1 -5 3 -6 9 -2 12
7 -3 41 -22 48 -9 4 -9 6 -1 6 6 1 19 -7 29 -17 10 -9 22 -17 28 -17 6 -1 10
-7 8 -15 -2 -8 0 -11 4 -7 16 15 12 35 -5 32 -10 -2 -18 3 -18 11 0 9 4 11 12
4 7 -6 16 -5 25 3 7 6 11 8 8 2 -3 -5 -2 -19 3 -30 6 -17 8 -16 9 10 1 26 3
27 9 10 5 -11 7 -23 5 -27 -3 -4 0 -10 6 -13 6 -4 9 -1 8 6 -3 15 21 19 37 8
7 -5 11 1 12 14 2 15 0 18 -6 9 -6 -11 -10 -10 -15 4 -3 9 -4 19 -1 22 3 3 5
0 5 -7 0 -7 5 -9 10 -6 6 3 14 -4 19 -17 9 -21 10 -21 10 -3 1 12 -4 26 -11
33 -9 9 -6 10 12 7 13 -2 27 -10 32 -17 6 -10 8 -10 9 2 1 8 1 18 0 23 0 4 4
7 11 7 6 0 8 3 5 6 -4 4 -13 1 -21 -5 -10 -9 -16 -9 -21 -1 -4 6 -4 14 -1 17
3 4 6 1 6 -6 0 -7 5 -9 10 -6 6 4 8 10 5 14 -2 5 8 6 23 4 25 -3 26 -3 5 6
-13 6 -23 16 -22 23 0 10 2 10 6 1 2 -7 9 -13 14 -13 6 0 7 5 4 10 -3 6 -1 10
4 10 6 0 11 -5 11 -12 0 -6 3 -9 6 -6 11 11 11 43 1 63 -5 11 -6 17 -2 13 9
-9 46 66 41 85 -1 6 -1 9 1 4 3 -4 9 -4 14 -1 6 3 5 12 -3 22 -11 15 -11 15 3
5 9 -7 20 -9 24 -5 4 4 -1 -6 -13 -23 -12 -16 -28 -46 -36 -67 -14 -33 -14
-37 2 -49 13 -10 15 -10 6 0 -7 7 -9 22 -6 33 3 13 7 16 12 8 5 -8 9 -7 13 5
5 11 3 14 -5 9 -8 -5 -9 -2 -5 10 4 10 7 21 7 24 0 4 4 1 9 -6 7 -11 9 -10 14
3 5 10 3 14 -4 9 -7 -4 -10 -1 -7 7 3 8 12 13 19 11 8 -2 11 0 6 4 -4 4 -1 14
7 23 8 9 16 25 18 36 2 11 11 19 19 17 8 -2 11 0 7 3 -4 4 -1 20 7 35 12 23
12 29 -2 42 -11 12 -12 17 -2 23 7 5 10 4 5 -3 -3 -6 -2 -13 4 -17 10 -6 13 4
11 40 l-1 20 9 -20 c4 -11 6 -27 3 -35 -3 -8 -1 -11 3 -7 5 4 8 23 7 42 -2 19
2 35 7 35 5 0 8 -8 6 -17 -1 -10 0 -12 2 -5 3 7 8 10 12 8 4 -3 7 3 8 12 1 9
4 29 7 45 3 18 1 25 -6 21 -8 -5 -9 -1 -5 10 4 9 3 15 -1 12 -8 -5 -36 22 -39
37 0 4 -4 18 -8 30 -4 12 -7 26 -6 30 1 5 -4 5 -10 1 -9 -5 -10 -2 -6 10 4 9
3 15 -1 12 -11 -7 -39 27 -35 41 2 6 0 14 -6 17 -6 4 -8 13 -5 20 3 8 1 17 -4
20 -5 3 -8 -6 -6 -19 1 -14 -3 -28 -8 -32 -7 -3 -8 -1 -4 5 6 10 -5 16 -25 14
-4 -1 -6 4 -6 11 1 37 -4 57 -13 52 -6 -4 -10 -3 -9 2 1 4 -2 18 -6 31 -6 19
-10 21 -24 10 -14 -11 -14 -11 -3 3 10 13 9 19 -3 29 -8 7 -15 17 -15 22 0 14
29 -17 45 -48 l14 -27 -1 32 c-1 21 -4 28 -9 19 -5 -7 -9 -8 -9 -3 0 14 -77
94 -84 88 -2 -3 -2 6 1 19 6 21 5 22 -11 9 -15 -12 -17 -12 -14 0 2 8 -3 13
-10 11 -8 -1 -11 1 -8 6 3 5 -9 22 -26 38 -18 16 -27 22 -21 14 6 -9 7 -23 2
-35 -7 -19 -8 -19 -8 1 -1 12 -9 28 -18 35 -15 11 -16 11 -5 -1 23 -26 13 -42
-10 -18 -13 13 -20 20 -16 15 3 -5 4 -16 0 -25 -5 -13 -7 -12 -13 4 -7 18 -8
17 -8 -3 -1 -12 -5 -24 -10 -27 -4 -3 -6 5 -4 17 3 15 -2 29 -14 38 -16 13
-17 13 -4 -3 8 -11 10 -25 6 -35 -5 -10 -7 -22 -6 -27 1 -5 -4 -4 -12 3 -10 8
-17 8 -20 1 -3 -6 -4 -5 -2 2 1 7 7 12 13 11 7 -2 9 5 6 15 -5 15 -4 15 6 2 8
-10 10 -11 8 -2 -2 8 -6 12 -10 10 -3 -2 -16 6 -29 17 l-24 20 18 -21z m114
-36 c-3 -8 -6 -5 -6 6 -1 11 2 17 5 13 3 -3 4 -12 1 -19z m66 7 c4 -8 3 -16
-1 -19 -4 -3 -9 4 -9 15 -2 23 3 25 10 4z m-133 -51 c0 -2 -7 -4 -15 -4 -8 0
-15 4 -15 10 0 5 7 7 15 4 8 -4 15 -8 15 -10z m367 -258 c-3 -8 9 -31 28 -51
35 -39 49 -71 34 -81 -5 -3 -9 -2 -8 3 4 23 -2 43 -11 38 -6 -4 -10 -3 -9 2 3
20 -2 27 -12 13 -8 -12 -9 -10 -4 9 6 18 4 22 -6 16 -8 -5 -11 -5 -7 0 4 4 1
13 -8 19 -13 10 -11 46 3 46 3 0 3 -6 0 -14z m-123 -132 c3 -8 2 -12 -4 -9 -6
3 -10 10 -10 16 0 14 7 11 14 -7z m16 -39 c0 -2 -7 -2 -15 1 -11 5 -13 2 -9
-10 3 -9 11 -13 17 -9 6 4 7 1 1 -8 -13 -21 -16 -51 -4 -44 6 4 7 -1 3 -11 -5
-13 -7 -14 -14 -2 -4 8 -6 23 -5 34 2 10 0 24 -4 29 -4 6 -7 18 -7 27 0 13 4
15 19 7 10 -5 18 -12 18 -14z m208 -2 c13 -20 16 -35 11 -53 -6 -23 -7 -23 -8
-3 -1 12 -5 24 -11 28 -5 3 -6 13 -3 22 5 12 3 14 -7 8 -8 -5 -11 -4 -6 3 3 5
0 13 -6 15 -9 4 -9 6 -1 6 6 1 20 -11 31 -26z m-58 -177 c0 -7 -8 -24 -19 -37
-10 -13 -20 -33 -22 -43 -4 -22 -22 -24 -27 -4 -2 9 0 8 7 -2 9 -12 11 -11 11
7 0 12 7 28 15 36 8 8 11 17 8 21 -4 3 -1 6 6 6 8 0 11 8 8 20 -3 11 -1 18 4
14 5 -3 9 -11 9 -18z m-144 -261 c1 -9 -4 -11 -14 -7 -10 4 -12 7 -4 10 7 2 9
9 5 15 -3 7 -2 8 2 4 5 -4 10 -14 11 -22z m-276 -89 c0 -2 -7 -7 -16 -10 -8
-3 -12 -2 -9 4 6 10 25 14 25 6z m129 -29 c8 -10 7 -14 -2 -14 -8 0 -14 6 -14
14 0 7 1 13 2 13 2 0 8 -6 14 -13z"/>
<path d="M784 1408 c15 -21 32 -36 37 -35 5 1 16 -13 26 -32 10 -19 26 -36 36
-37 9 -1 15 2 11 7 -3 5 -9 7 -14 4 -8 -5 -37 54 -32 68 1 4 -3 6 -10 5 -7 -2
-12 2 -13 9 0 6 -4 15 -9 20 -5 4 -6 3 -2 -4 3 -6 2 -14 -4 -18 -10 -6 -15 9
-10 30 1 6 -2 7 -6 3 -4 -4 -14 -2 -23 5 -8 6 -3 -5 13 -25z"/>
<path d="M206 1337 c3 -10 9 -15 12 -12 3 3 0 11 -7 18 -10 9 -11 8 -5 -6z"/>
<path d="M618 1313 c6 -2 9 -10 6 -15 -4 -7 -2 -8 4 -4 7 4 12 0 13 -11 0 -11
3 -13 6 -5 6 15 -14 42 -31 41 -7 0 -6 -2 2 -6z"/>
<path d="M937 1205 c-4 -8 -2 -17 2 -19 5 -3 11 -19 14 -36 4 -16 11 -30 17
-30 6 0 9 4 6 9 -13 21 -29 67 -27 79 3 17 -6 15 -12 -3z"/>
<path d="M710 1165 c0 -11 10 -35 23 -54 12 -19 30 -48 40 -65 10 -17 16 -23
13 -13 -4 10 -6 22 -6 26 0 4 -10 18 -22 30 -12 13 -27 40 -34 60 -8 22 -13
28 -14 16z"/>
<path d="M310 1153 c0 -6 8 -17 18 -24 16 -13 16 -13 2 6 -8 11 -16 22 -17 24
-2 2 -3 0 -3 -6z"/>
<path d="M1583 1108 c0 -17 2 -25 7 -18 5 8 9 7 14 -5 3 -9 11 -13 16 -10 15
9 7 30 -11 30 -8 0 -14 5 -14 12 0 27 -10 19 -12 -9z"/>
<path d="M1643 1097 c0 -12 1 -16 4 -8 5 11 7 11 14 0 5 -8 9 -9 9 -3 0 6 -6
16 -13 22 -10 8 -13 6 -14 -11z"/>
<path d="M419 962 c-1 -7 -2 -18 -3 -24 -1 -7 2 -22 8 -33 11 -20 12 -26 15
-55 1 -13 3 -13 10 -1 5 8 7 21 3 29 -4 11 -1 13 8 7 9 -5 11 -4 6 4 -4 6 -12
9 -17 6 -5 -4 -9 -3 -10 2 -1 4 -2 20 -3 36 -3 28 -15 49 -17 29z"/>
<path d="M1460 756 c0 -2 7 -7 16 -10 8 -3 12 -2 9 4 -6 10 -25 14 -25 6z"/>
<path d="M1545 619 c-4 -12 -3 -25 2 -29 4 -5 8 4 9 21 1 34 -2 37 -11 8z"/>
<path d="M1356 563 c-4 -9 -3 -20 1 -24 4 -4 9 3 9 17 2 28 -1 31 -10 7z"/>
<path d="M651 483 c0 -13 -6 -23 -12 -23 -5 0 -7 -5 -3 -11 9 -16 27 16 21 39
-3 12 -5 11 -6 -5z"/>
<path d="M1260 418 c6 -7 10 -19 10 -27 0 -13 -2 -13 -9 -3 -7 11 -9 10 -14
-3 -4 -9 -3 -13 3 -10 6 3 10 0 11 -7 0 -7 5 -3 11 10 9 18 8 26 -5 37 -9 8
-12 10 -7 3z"/>
<path d="M187 409 c7 -7 15 -10 18 -7 3 3 -2 9 -12 12 -14 6 -15 5 -6 -5z"/>
<path d="M1800 376 c0 -2 8 -10 18 -17 15 -13 16 -12 3 4 -13 16 -21 21 -21
13z"/>
<path d="M560 351 c0 -6 4 -13 10 -16 6 -3 7 1 4 9 -7 18 -14 21 -14 7z"/>
<path d="M1420 357 c0 -3 12 -12 26 -22 15 -9 23 -12 20 -6 -7 11 -46 35 -46
28z"/>
<path d="M1837 346 c-7 -17 16 -39 28 -28 5 4 5 -1 2 -11 -5 -12 -3 -16 5 -11
8 5 9 2 5 -10 -4 -10 -3 -15 3 -11 9 5 15 -16 11 -38 -1 -5 3 -6 9 -2 5 3 10
-3 10 -14 0 -11 4 -23 10 -26 12 -7 6 12 -22 75 -28 62 -54 94 -61 76z"/>
<path d="M1525 189 c-4 -6 -5 -12 -2 -15 2 -3 7 2 10 11 7 17 1 20 -8 4z"/>
<path d="M1520 150 c0 -5 6 -10 14 -10 8 0 18 -12 23 -27 9 -27 10 -27 15 -5
4 12 2 20 -3 16 -5 -3 -9 -1 -9 5 0 6 -9 15 -20 21 -14 7 -20 7 -20 0z"/>
<path d="M1930 156 c0 -2 8 -10 18 -17 15 -13 16 -12 3 4 -13 16 -21 21 -21
13z"/>
<path d="M1960 116 c0 -2 8 -10 18 -17 15 -13 16 -12 3 4 -13 16 -21 21 -21
13z"/>
</g>
</svg>
